<?xml version="1.0" standalone="no"?><!DOCTYPE svg PUBLIC "-//W3C//DTD SVG 1.1//EN" "http://www.w3.org/Graphics/SVG/1.1/DTD/svg11.dtd"><svg t="1717836528063" class="icon" viewBox="0 0 1285 1024" version="1.1" xmlns="http://www.w3.org/2000/svg" p-id="9027" xmlns:xlink="http://www.w3.org/1999/xlink" width="250.9765625" height="200"><path d="M120.537796 1.285356c1.142538 1.713808-1.856625 2.713529-12.282287 3.713249-11.282566 1.142538-26.564017 5.855509-35.418689 10.854115-1.142538 0.714086-3.427615 1.856625-5.141423 2.570711-7.712134 3.427615-19.423152 12.282287-29.705997 22.422315-19.137517 19.137517-29.991632 38.560669-36.41841 65.267504C0.428452 111.111855 0 217.367922 0 512.428452 0 852.762064 0.285635 913.316597 1.999442 921.171548c7.569317 34.418968 30.705718 66.124407 61.125802 83.833752 12.13947 6.998047 14.995816 8.283403 31.13417 13.71046l9.283124 3.141981h1076.842399l10.711297-3.998885c5.855509-2.285077 11.996653-4.427336 13.567643-4.855788 6.712413-2.142259 27.849372-16.138354 36.704045-24.564574 9.568759-8.99749 22.422315-24.993026 25.421478-31.70544 0.856904-1.856625 3.14198-6.283961 4.998606-9.854393 1.856625-3.570432 3.427615-7.712134 3.427615-9.425941 0.142817-1.57099 1.142538-4.141702 2.285076-5.712692 1.142538-1.428173 2.142259-4.284519 2.14226-6.283961 0.142817-5.855509 1.57099-9.997211 3.713249-9.997211 1.713808 0 1.999442-60.554533 1.999443-401.459414 0-354.472524-0.285635-401.745049-2.14226-403.173222-1.142538-0.856904-2.713529-4.427336-3.427615-7.997768-2.427894-12.282287-10.282845-29.848815-18.851883-42.845188-9.568759-14.424547-33.704881-36.132775-45.987169-41.417016-1.713808-0.856904-4.141702-1.999442-5.284239-2.713528-8.854672-4.998605-24.136123-9.711576-35.418689-10.854115-10.425662-0.999721-13.424826-1.999442-12.282288-3.713249C1162.389958 0.571269 947.878382 0 641.249651 0 334.620921 0 120.109344 0.571269 120.537796 1.285356z m1015.57378 67.124128c34.704603 1.428173 38.132218 2.142259 52.128312 11.568201 8.42622 5.712692 20.280056 19.137517 23.850489 27.135286 1.142538 2.713529 3.14198 9.425941 4.570153 14.995816 2.142259 9.140307 2.285077 41.988285 2.285077 389.891213 0 414.027336 0.428452 391.176569-8.283403 409.028731-6.569596 13.567643-25.992748 31.562622-34.133334 31.562622-0.856904 0-2.856346 1.142538-4.427336 2.570711-2.570711 2.285077-29.848815 2.427894-530.851883 2.427894s-528.281172-0.142817-530.851883-2.570711c-1.57099-1.285356-3.570432-2.427894-4.427336-2.427894-7.712134 0-27.135286-17.566527-33.990516-30.705718-8.854672-17.42371-8.42622 6.426778-8.42622-409.171549 0-399.602789-0.142817-388.034589 6.141144-403.458856 3.284798-8.140586 11.996653-19.565969 19.137517-25.278661C104.399442 71.551464 109.969317 69.837657 139.246862 68.552301c34.704603-1.428173 959.160948-1.57099 996.864714-0.142817z" p-id="9028"></path><path d="M333.478382 346.617573c-4.712971 1.142538-10.282845 3.14198-12.425104 4.141702-1.999442 1.142538-4.998605 1.999442-6.569596 1.999442-1.57099 0-4.712971 0.999721-6.998047 2.142259-2.142259 0.999721-6.85523 3.427615-10.425663 4.998606-3.570432 1.713808-8.283403 4.284519-10.711297 5.855509-2.285077 1.428173-5.28424 3.14198-6.426778 3.713249-4.570153 1.999442-18.280614 13.282008-27.706555 22.70795-22.70795 22.70795-37.275314 47.986611-44.558996 76.978522-5.141423 20.422873-5.712692 66.695676-0.999721 83.548117 3.284798 11.568201 7.426499 23.993305 8.854672 26.849651 0.714086 1.285356 2.713529 5.28424 4.427336 8.854672 4.712971 9.854393 11.996653 21.422594 17.566527 28.277825 29.277545 35.561506 62.982427 55.270293 109.255231 63.83933 10.282845 1.856625 46.844073 2.142259 293.489539 2.14226 267.06834 0 282.349791-0.142817 296.63152-2.713529 8.283403-1.428173 16.423989-3.284798 18.137797-4.284519 1.713808-0.856904 4.855788-1.57099 6.85523-1.57099 2.142259 0 5.569874-0.856904 7.569317-1.999442 2.142259-1.142538 6.712413-3.14198 10.282845-4.570154 28.706276-11.711018 59.554812-38.560669 76.55007-66.981311 16.852441-27.849372 23.279219-52.27113 23.279218-88.546722 0-26.849651-4.855788-53.128033-12.567921-67.55258-0.714086-1.285356-2.713529-5.28424-4.427337-8.854672-7.283682-15.138633-15.709902-26.849651-28.849093-40.274477-24.850209-25.564296-46.558438-37.9894-85.261925-48.986332-9.425941-2.570711-67.409763-3.14198-73.979358-0.57127-2.142259 0.856904-6.569596 1.999442-9.711576 2.713529-25.564296 5.28424-54.699024 22.422315-77.835426 45.701534-20.56569 20.708508-39.131939 54.413389-42.845188 77.835426-0.571269 3.856067-1.856625 8.99749-2.713528 11.139749-0.856904 2.427894-1.57099 14.138912-1.570991 28.420641 0 23.279219 1.285356 33.704881 5.998327 47.558159 0.714086 2.285077 1.856625 6.141144 2.427894 8.569038 0.571269 2.285077 2.713529 7.854951 4.71297 12.13947s3.998884 8.854672 4.570154 9.99721c0.428452 1.142538 2.142259 3.998884 3.71325 6.426779 1.57099 2.285077 3.284798 5.28424 3.856066 6.426778 0.571269 1.142538 2.427894 4.284519 4.284519 6.998047 1.713808 2.570711 2.856346 5.28424 2.427894 5.998327-0.428452 0.714086-57.412552 1.285356-131.249093 1.285355-108.826778 0-130.535007-0.285635-131.106276-1.999442-0.428452-0.999721 1.713808-5.569874 4.855788-10.140028 7.854951-11.568201 17.138075-31.419805 20.708507-44.273361 3.284798-11.425384 7.712134-39.274756 7.712134-47.843794 0-9.568759-3.570432-33.704881-6.569595-44.273361-6.712413-22.993584-16.281172-42.273919-29.705997-59.840446-8.140586-10.56848-29.134728-30.277266-39.560391-37.275314-13.996095-9.283124-37.846583-20.137238-50.557322-22.850767-3.14198-0.714086-7.997768-1.999442-10.711297-2.856346-7.854951-2.285077-61.839888-1.57099-72.122734 0.999721z m67.124128 68.409484c16.709623 5.712692 31.13417 13.996095 41.274199 23.850488 6.998047 6.85523 17.138075 19.994421 19.280334 25.278661 0.856904 1.999442 2.142259 4.570153 2.856346 5.712692 4.855788 8.140586 10.140028 30.420084 10.140028 43.130823 0 4.998605-0.999721 12.853556-2.142259 17.280893-1.142538 4.570153-2.142259 9.283124-2.14226 10.425662 0 1.285356-2.856346 8.140586-6.426778 15.281451-13.567643 27.99219-37.418131 47.558159-67.55258 55.555927-8.99749 2.285077-13.996095 2.713529-27.420921 2.14226-18.709066-0.714086-26.992469-2.856346-43.416457-10.996932-16.995258-8.569038-32.990795-24.136123-42.845188-41.988285-15.995537-28.991911-15.995537-67.124128 0.142817-96.401673 9.711576-17.42371 29.134728-36.561227 43.27364-42.273919 1.142538-0.571269 3.284798-1.57099 4.855788-2.427894 4.427336-2.285077 15.424268-5.712692 22.993584-6.855231 10.996932-1.856625 38.846304-0.428452 47.129707 2.285077z m538.992469 0.571269c8.283403 2.713529 11.711018 4.141702 17.280893 7.4265 1.142538 0.571269 3.427615 1.713808 4.998605 2.427894 5.569874 2.570711 19.994421 15.28145 26.849651 23.707671 6.998047 8.854672 14.138912 22.565132 18.851883 36.41841 2.142259 6.141144 2.713529 11.996653 2.713529 27.135285-0.142817 19.994421-1.142538 25.564296-8.140586 41.417016-25.992748 58.840725-101.685914 78.692329-153.100139 40.274477-13.424826-9.997211-26.992469-26.135565-31.419805-37.418131-0.571269-1.142538-1.713808-4.141702-2.713529-6.426779-4.998605-11.282566-6.569596-20.56569-6.569595-37.846583 0-17.138075 1.57099-26.849651 6.426778-37.846583 0.999721-2.427894 2.285077-5.28424 2.713528-6.426778 0.428452-1.142538 2.142259-4.141702 3.71325-6.426778 1.57099-2.427894 3.427615-5.569874 4.141702-7.140865 2.142259-4.570153 20.280056-22.136681 27.992189-27.135286 11.853835-7.569317 26.135565-13.282008 37.846583-15.138633 11.711018-1.999442 38.703487-0.285635 48.415063 2.999163z" p-id="9029"></path></svg>