<?xml version="1.0" standalone="no"?><!DOCTYPE svg PUBLIC "-//W3C//DTD SVG 1.1//EN" "http://www.w3.org/Graphics/SVG/1.1/DTD/svg11.dtd"><svg t="1717946257775" class="icon" viewBox="0 0 1024 1024" version="1.1" xmlns="http://www.w3.org/2000/svg" p-id="5208" xmlns:xlink="http://www.w3.org/1999/xlink" width="128" height="128"><path d="M194.39135 956.465a40.635 40.635 0 0 0 40.23-41.13v-332.37c4.635 3.825 9.585 7.65 15.3 11.115l553.185 350.19c62.64 39.645 113.895 10.53 113.895-64.935V143.45c0-75.33-50.715-103.5-112.68-62.775L248.48135 447.605c-4.95 3.285-9.585 6.93-13.86 10.575V108.665c0-22.725-18-41.085-40.23-41.085H147.23135A40.635 40.635 0 0 0 107.00135 108.665v806.67c0 22.77 18 41.13 40.23 41.13h47.16z" p-id="5209" fill="#ffffff"></path></svg>