<?xml version="1.0" standalone="no"?><!DOCTYPE svg PUBLIC "-//W3C//DTD SVG 1.1//EN" "http://www.w3.org/Graphics/SVG/1.1/DTD/svg11.dtd"><svg t="1717946234012" class="icon" viewBox="0 0 1024 1024" version="1.1" xmlns="http://www.w3.org/2000/svg" p-id="5018" xmlns:xlink="http://www.w3.org/1999/xlink" width="128" height="128"><path d="M792.93166187 622.151408L230.35120533 974.65119467c-71.3618272 44.73185173-160.5635648-11.18269013-160.5635648-100.559072l0-722.9268064c0-89.41895147 89.2017376-145.33349333 160.5635648-100.60273387L792.97532267 403.06236907l0-288.14337707c-1.03476693-44.5190048 34.21608427-81.4464416 78.73508906-82.48120853 44.5190048-1.03476693 81.4464416 34.21608427 82.48120854 78.73508906a79.373632 79.373632 0 0 1 0 3.74611947l0 796.02852693c0.00436587 44.5310112-36.0924192 80.63325332-80.62233814 80.636528-44.5310112 0.00436587-80.63325332-36.0924192-80.63652906-80.62233813l0-0.01418987-0.0010912-288.79611093z" fill="#ffffff" p-id="5019"></path></svg>