<?xml version="1.0" standalone="no"?><!DOCTYPE svg PUBLIC "-//W3C//DTD SVG 1.1//EN" "http://www.w3.org/Graphics/SVG/1.1/DTD/svg11.dtd"><svg t="1717946404251" class="icon" viewBox="0 0 1024 1024" version="1.1" xmlns="http://www.w3.org/2000/svg" p-id="11270" xmlns:xlink="http://www.w3.org/1999/xlink" width="128" height="128"><path d="M887.65 769.103l-61.006-61.007a29.538 29.538 0 0 1 41.747-41.748L974.73 772.687a29.538 29.538 0 0 1 5.08 35.052 29.538 29.538 0 0 1-5.316 7.168L868.155 921.246a29.538 29.538 0 1 1-41.748-41.748l51.673-51.712a408.773 408.773 0 0 1-329.098-173.174L382.11 417.95A350.878 350.878 0 0 0 95.39 269.273a29.538 29.538 0 0 1 0-59.077c133.238 0 258.205 64.787 335.005 173.686l166.873 236.701a349.696 349.696 0 0 0 285.774 148.165c1.576 0 3.112 0.118 4.608 0.355z m-6.892-558.671l-53.681-53.72a29.538 29.538 0 0 1 41.748-41.748l106.338 106.338a29.46 29.46 0 0 1 8.665 21.662 29.46 29.46 0 0 1-8.665 21.661L868.825 370.964a29.538 29.538 0 0 1-41.748-41.827l59.825-59.825c-111.852 2.245-216.89 59.313-284.554 155.254l-14.257 20.204a29.538 29.538 0 0 1-48.246-34.028l14.218-20.244c77.39-109.686 197.71-175.93 326.695-180.105zM465.211 619.126l-20.362 28.87c-79.754 113.072-205.233 179.83-338.707 179.83a29.538 29.538 0 0 1 0-59.078c114.018 0 221.617-57.226 290.422-154.781l20.362-28.87a29.538 29.538 0 0 1 48.285 34.03z" fill="#ffffff" p-id="11271"></path></svg>